<?xml version="1.0" encoding="UTF-8" standalone="no"?>
<!-- Created with Inkscape (http://www.inkscape.org/) -->
<svg id="svg22770" xmlns:rdf="http://www.w3.org/1999/02/22-rdf-syntax-ns#" xmlns="http://www.w3.org/2000/svg" height="32" width="236" version="1.1" xmlns:cc="http://creativecommons.org/ns#" xmlns:dc="http://purl.org/dc/elements/1.1/" viewBox="0 0 236 32.000001">
 <metadata id="metadata22775">
  <rdf:RDF>
   <cc:Work rdf:about="">
    <dc:format>image/svg+xml</dc:format>
    <dc:type rdf:resource="http://purl.org/dc/dcmitype/StillImage"/>
    <dc:title/>
   </cc:Work>
  </rdf:RDF>
 </metadata>
 <g id="layer1" fill="#e0e0e0" transform="translate(0 -1020.4)">
  <g id="text2985-2-5-9-8-3">
   <path id="path23385" fill="#cad3b8" d="m0.61994 1050.4q0-0.4095 0.22052-0.693l-0.031502 0.063q3.3393-6.6785 6.647-13.294 3.3393-6.6155 6.6785-13.294 0.18901-0.3151 0.50404-0.5356 0.31502-0.252 0.69305-0.252 0.50404 0 0.88207 0.378 0.37803 0.3466 0.37803 0.8821 0 0.378-0.15751 0.6301l-13.357 26.588q-0.40953 0.7875-1.1656 0.7875-0.53554 0-0.91357-0.378-0.37803-0.3465-0.37803-0.8821z"/>
   <path id="path23387" fill="#46362c" d="m25.383 1047.9q-1.7956 0-3.3393-0.6931-1.5436-0.6931-2.6777-1.8586-1.1026-1.1656-1.7641-2.7092-0.63005-1.5752-0.63005-3.3393 0-1.7326 0.63005-3.2763 0.66155-1.5436 1.7641-2.7092 1.1341-1.197 2.6777-1.8901t3.3393-0.6931q2.0162 0 3.4653 0.6931t2.5517 1.6696q0.37803 0.3466 0.25202 0.8821-0.09451 0.504-0.44103 0.9136-0.34653 0.378-0.85056 0.5355-0.50404 0.1575-0.91357-0.189-0.81906-0.7246-1.7641-1.2601-0.94507-0.5355-2.3312-0.5355-1.1341 0-2.1107 0.4725-0.97657 0.441-1.7011 1.2286-0.72456 0.7875-1.1341 1.8586-0.40953 1.0711-0.40953 2.2997t0.40953 2.2997q0.44103 1.0396 1.1656 1.8586 0.75606 0.7876 1.7641 1.2601 1.0081 0.441 2.1737 0.441 1.2916 0 2.3312-0.504 1.0396-0.5355 1.8586-1.3231 0.34653-0.3465 0.81906-0.2205 0.47254 0.126 0.81906 0.504 0.34653 0.3466 0.47254 0.8191t-0.22052 0.8191q-1.1971 1.197-2.6777 1.9216-1.4491 0.7246-3.5283 0.7246z"/>
   <path id="path23389" fill="#46362c" d="m41.53 1047.9q-1.8586 0-3.4338-0.6616-1.5436-0.693-2.6777-1.8586-1.1341-1.1971-1.7641-2.7407-0.63005-1.5752-0.63005-3.3393 0-1.7326 0.63005-3.2763 0.66155-1.5436 1.7956-2.7092 1.1341-1.197 2.7092-1.8901t3.4338-0.6931q1.8586 0 3.4338 0.6931 1.5751 0.6616 2.7092 1.8586 1.1341 1.1656 1.7641 2.7407 0.66155 1.5437 0.66155 3.2763t-0.66155 3.3078q-0.63005 1.5436-1.7956 2.7407-1.1341 1.1655-2.7407 1.8586-1.5751 0.6931-3.4338 0.6931zm0.06301-2.7408q1.2286 0 2.2367-0.441 1.0081-0.4725 1.7326-1.2601 0.72456-0.819 1.1341-1.8586 0.40953-1.0711 0.40953-2.2997t-0.44103-2.2682q-0.40953-1.0711-1.1656-1.8586-0.72456-0.8191-1.7641-1.2601-1.0081-0.4725-2.2052-0.4725-1.2286 0-2.2367 0.4725-1.0081 0.441-1.7326 1.2601-0.72456 0.7875-1.1341 1.8586-0.37803 1.0396-0.37803 2.2682t0.40953 2.2997q0.44103 1.0396 1.1656 1.8586 0.75606 0.7876 1.7641 1.2601 1.0081 0.441 2.2052 0.441z"/>
   <path id="path23391" fill="#46362c" d="m60.435 1030.7q1.5121 0 2.6777 0.5041 1.1971 0.4725 2.0162 1.3546 0.81906 0.882 1.2601 2.1106 0.44103 1.2286 0.44103 2.7092v8.8522q0 0.6301-0.44103 1.0711-0.40953 0.441-1.0396 0.441-0.66155 0-1.1026-0.441-0.40953-0.441-0.40953-1.0711v-8.2536q0-2.0792-1.0711-3.2763-1.0396-1.197-2.9927-1.197-0.78756-0.032-1.6381 0.189-0.85056 0.189-1.5751 0.8505-0.69305 0.6301-1.1656 1.8587-0.44103 1.2286-0.40953 3.2762 0.063 1.5436 0.22052 3.0243 0.18902 1.4806 0.44103 3.1817v-0.032q0.12601 0.63-0.18901 1.2286-0.31502 0.5985-1.1026 0.6615-0.91357 0.063-1.2601-0.4725-0.34653-0.567-0.47254-1.2916-0.25202-2.2367-0.44103-3.9693-0.15751-1.7641-0.25202-3.3078-0.063-1.5436-0.063-3.0242t0.063-3.1817q0.0315-0.8191 0.44103-1.3231 0.40953-0.5356 1.3231-0.5041 0.63005 0.094 0.94507 0.5986 0.31502 0.504 0.31502 1.1026 0 0.252 0 0.5985 0 0.315-0.0315 0.6616 0.91357-1.3231 2.2052-2.1107 1.2916-0.8191 3.3078-0.8191z"/>
   <path id="path23393" fill="#46362c" d="m75.775 1047.9q-1.6066 0-3.2762-0.567t-2.9927-1.4806q-0.22052-0.1575-0.40953-0.441-0.15751-0.2836-0.15751-0.6616t0.22052-0.6615q0.22052-0.3151 0.53554-0.4726 0.31502-0.189 0.66155-0.189 0.37803 0 0.69305 0.252 1.1656 0.7876 2.3942 1.1971t2.4572 0.4095q1.2916 0 2.1107-0.5985 0.85056-0.5985 0.85056-1.6696 0-0.5041-0.31502-0.8821-0.28352-0.378-0.81906-0.6615-0.50404-0.2836-1.1971-0.5041-0.66155-0.2205-1.4176-0.441-0.94507-0.2835-1.9216-0.5986-0.97657-0.3465-1.7641-0.882-0.78756-0.5356-1.2916-1.3231-0.47254-0.8191-0.47254-2.0162 0-1.1026 0.40953-1.9846 0.44103-0.9136 1.1971-1.5436 0.75606-0.6301 1.7956-0.9766 1.0711-0.3465 2.2997-0.3465 1.3231 0 2.6777 0.378t2.5517 1.0081q0.28352 0.1575 0.50404 0.504 0.22052 0.315 0.22052 0.7561 0 0.378-0.18902 0.693-0.18901 0.2835-0.50404 0.441-0.28352 0.1576-0.63005 0.1891-0.34653 0-0.66155-0.1576-1.0081-0.567-2.0477-0.882-1.0081-0.315-1.9847-0.315-1.2601 0-2.0162 0.567-0.72456 0.567-0.72456 1.4806 0 0.4725 0.31502 0.8191 0.34653 0.3465 0.88207 0.63t1.2286 0.5356q0.69305 0.2205 1.4176 0.441 0.91357 0.2835 1.8586 0.6615 0.94507 0.3781 1.7011 0.9451 0.75606 0.5356 1.2286 1.3546 0.50404 0.7876 0.50404 1.9217 0 1.1971-0.47254 2.1421-0.44103 0.9451-1.2601 1.6066-0.78756 0.6301-1.8586 0.9766-1.0711 0.3465-2.3312 0.3465z"/>
   <path id="path23395" fill="#46362c" d="m91.535 1047.9q-1.8586 0-3.4338-0.6616-1.5436-0.693-2.6777-1.8586-1.1341-1.1971-1.7641-2.7407-0.63005-1.5752-0.63005-3.3393 0-1.7326 0.63005-3.2763 0.66155-1.5436 1.7956-2.7092 1.1341-1.197 2.7092-1.8901t3.4338-0.6931q1.8586 0 3.4338 0.6931 1.5751 0.6616 2.7092 1.8586 1.1341 1.1656 1.7641 2.7407 0.66155 1.5437 0.66155 3.2763t-0.66155 3.3078q-0.63005 1.5436-1.7956 2.7407-1.1341 1.1655-2.7407 1.8586-1.5751 0.6931-3.4338 0.6931zm0.06301-2.7408q1.2286 0 2.2367-0.441 1.0081-0.4725 1.7326-1.2601 0.72456-0.819 1.1341-1.8586 0.40953-1.0711 0.40953-2.2997t-0.44103-2.2682q-0.40953-1.0711-1.1656-1.8586-0.72456-0.8191-1.7641-1.2601-1.0081-0.4725-2.2052-0.4725-1.2286 0-2.2367 0.4725-1.0081 0.441-1.7326 1.2601-0.72456 0.7875-1.1341 1.8586-0.37803 1.0396-0.37803 2.2682t0.40953 2.2997q0.44103 1.0396 1.1656 1.8586 0.75606 0.7876 1.7641 1.2601 1.0081 0.441 2.2052 0.441z"/>
   <path id="path23397" fill="#46362c" d="m103.13 1025.9q0-0.6301 0.40953-1.0711t1.0396-0.441q0.66155 0 1.0711 0.441 0.44104 0.441 0.44104 1.0711v20.256q0 0.6301-0.40954 1.0711-0.40953 0.441-1.0711 0.441-0.63005 0-1.0711-0.441-0.40953-0.441-0.40953-1.0711v-20.256z"/>
   <path id="path23399" fill="#cad3b8" d="m118.85 1049.1q0.47254 0 0.85057 0.3466 0.37803 0.378 0.37803 0.882 0 0.5041-0.37803 0.8506-0.37803 0.378-0.85057 0.378h-6.584q-0.88207 0.032-1.2601-0.5355-0.37803-0.5671-0.50404-1.1971-0.12601-1.3231-0.25202-2.9297-0.0945-1.6382-0.15751-3.4338-0.063-1.7956-0.12601-3.7173-0.0315-1.9531-0.0315-3.8748 0-1.8586 0.0315-3.6227 0.0315-1.7957 0.0945-3.4023 0.0945-1.6066 0.18902-2.9612 0.0945-1.3546 0.22051-2.3627 0.12601-0.6301 0.37803-1.1341 0.28353-0.5355 1.0081-0.63 0.0945-0.032 0.31502-0.032 0.25202 0 0.78756 0 0.66155 0 2.0162 0t3.8748 0.032q0.44104 0.031 0.81906 0.4095 0.40954 0.3465 0.40954 0.7875 0 0.5356-0.37803 0.9136-0.37803 0.3465-0.85057 0.3465h-5.3869q-0.0945 0.6616-0.18901 1.7012-0.063 1.0081-0.12601 2.2997-0.0315 1.26-0.063 2.7407-0.0315 1.4491-0.0315 2.9612 0 2.2367 0.0315 4.5678 0.0315 2.2997 0.0945 4.3474 0.0945 2.0476 0.15751 3.7172 0.0945 1.6382 0.18902 2.5517h5.3239z"/>
   <path id="path23401" fill="#46362c" d="m121.22 1032.5q0-0.6301 0.40954-1.0711 0.40953-0.441 1.0396-0.441 0.66156 0 1.0711 0.441 0.44103 0.4095 0.44103 1.0711v13.735q0 0.6301-0.40953 1.0711t-1.0711 0.441q-0.63005 0-1.0711-0.441-0.40954-0.441-0.40954-1.0711v-13.735zm-0.22051-6.017q0-0.7245 0.47253-1.1341 0.47254-0.4095 1.1971-0.4095t1.2286 0.4095q0.50404 0.4096 0.50404 1.1341v0.4095q0 0.6931-0.50404 1.1341-0.50404 0.4096-1.2286 0.4096-0.72455 0-1.1971-0.4096-0.47253-0.441-0.47253-1.1341v-0.4095z"/>
   <path id="path23403" fill="#cad3b8" d="m128.45 1023.7q0-0.5355 0.37803-0.9136 0.40953-0.4095 0.94507-0.4095 0.50404 0 0.88207 0.4095 0.40953 0.3781 0.40953 0.9136v26.651q0 0.5356-0.40953 0.9136-0.37803 0.378-0.88207 0.378-0.53554 0-0.94507-0.378-0.37803-0.378-0.37803-0.9136v-26.651z"/>
   <path id="path23405" fill="#cad3b8" d="m133.87 1045.3q0-0.7561 0.50404-1.2286 0.50403-0.5041 1.2916-0.5041 0.75606 0 1.2286 0.5041 0.50404 0.4725 0.50404 1.2286v0.5985q0 0.7876-0.50404 1.2916-0.47254 0.504-1.2286 0.504-0.78756 0-1.2916-0.504t-0.50404-1.2916v-0.5985z"/>
   <path id="path23407" fill="#cad3b8" d="m144.24 1049.1q0.0945-0.9135 0.15751-2.5517 0.0945-1.6696 0.15751-3.7172 0.0945-2.0477 0.12601-4.3474 0.0315-2.3311 0.0315-4.5678 0-1.6381-0.0315-3.1188 0-1.5121-0.063-2.7722-0.0315-1.2916-0.12601-2.2681-0.063-0.9766-0.18901-1.5437h-5.3869q-0.47254 0-0.85056-0.3465-0.37803-0.378-0.37803-0.9136 0-0.441 0.37803-0.7875 0.40953-0.378 0.85056-0.4095 0.97657 0 1.9216 0 0.94507-0.032 1.7011-0.032 0.78756 0 1.3861 0 0.59855 0 0.88207 0 0.66155 0 0.81906 0 0.18902-0.032 0.28352 0.032 0.66155 0.126 0.94507 0.6615 0.31503 0.504 0.44104 1.1026 0.12601 1.0081 0.22051 2.3627t0.15752 2.9612q0.0945 1.6066 0.12601 3.4023 0.0315 1.7641 0.0315 3.6227 0 1.9217-0.063 3.8748-0.0315 1.9217-0.0945 3.7173t-0.18902 3.4338q-0.0945 1.6066-0.22051 2.9297-0.12601 0.63-0.50404 1.1971-0.37803 0.567-1.2601 0.5355h-6.584q-0.47254 0-0.85056-0.378-0.37803-0.3465-0.37803-0.8506 0-0.504 0.37803-0.882 0.37802-0.3466 0.85056-0.3466h5.3239z"/>
   <path id="path23409" fill="#cad3b8" d="m157.47 1037.9h-5.0719q-0.56704 0-1.0081-0.4095-0.40953-0.4096-0.40953-1.0081 0-0.5986 0.40953-1.0081 0.44104-0.4095 1.0081-0.4095h5.0719v-4.9774q0-0.6301 0.40953-1.0396t1.0396-0.4095q0.59854 0 1.0081 0.4095 0.44104 0.4095 0.44104 1.0396v4.9774h5.0719q0.63005 0 1.0081 0.4095 0.40953 0.4095 0.40953 1.0081 0 0.5985-0.40953 1.0081-0.37803 0.4095-1.0081 0.4095h-5.0719v4.9774q0 0.63-0.44104 1.0395-0.40953 0.4096-1.0081 0.4096-0.63005 0-1.0396-0.4096-0.40953-0.4095-0.40953-1.0395v-4.9774z"/>
   <path id="path23411" fill="#cad3b8" d="m178.99 1049.1q0.47254 0 0.85057 0.3466 0.37803 0.378 0.37803 0.882 0 0.5041-0.37803 0.8506-0.37803 0.378-0.85057 0.378h-6.584q-0.88207 0.032-1.2601-0.5355-0.37802-0.5671-0.50403-1.1971-0.12601-1.3231-0.25202-2.9297-0.0945-1.6382-0.15751-3.4338-0.063-1.7956-0.12601-3.7173-0.0315-1.9531-0.0315-3.8748 0-1.8586 0.0315-3.6227 0.0315-1.7957 0.0945-3.4023 0.0945-1.6066 0.18902-2.9612 0.0945-1.3546 0.22051-2.3627 0.12601-0.6301 0.37803-1.1341 0.28352-0.5355 1.0081-0.63 0.0945-0.032 0.31502-0.032 0.25202 0 0.78756 0 0.66155 0 2.0162 0t3.8748 0.032q0.44104 0.031 0.81906 0.4095 0.40954 0.3465 0.40954 0.7875 0 0.5356-0.37803 0.9136-0.37803 0.3465-0.85057 0.3465h-5.3869q-0.0945 0.6616-0.18901 1.7012-0.063 1.0081-0.12601 2.2997-0.0315 1.26-0.063 2.7407-0.0315 1.4491-0.0315 2.9612 0 2.2367 0.0315 4.5678 0.0315 2.2997 0.0945 4.3474 0.0945 2.0476 0.15751 3.7172 0.0945 1.6382 0.18902 2.5517h5.3239z"/>
   <path id="path23413" fill="#46362c" d="m194.53 1038.2q-0.0315 0.5986-0.0315 1.1026t0 1.0081q0 1.1656-0.0315 2.4257t-0.22052 3.0872q-0.063 0.8191-0.34652 1.3231t-1.1971 0.5355q-0.81907-0.032-1.1656-0.63-0.31503-0.5986-0.28352-1.1971v-0.031q-0.91357 0.8821-2.1737 1.4806-1.2601 0.5671-3.1187 0.5671-1.1656 0-2.2997-0.3466-1.1026-0.315-1.9846-0.9765-0.88207-0.6931-1.4176-1.6697-0.53554-1.0081-0.53554-2.3312 0-1.3546 0.50404-2.3626 0.53554-1.0396 1.4491-1.7327 0.94507-0.693 2.2367-1.0395 1.3231-0.3466 2.8982-0.3466 1.4491 0 2.6147 0.2205 1.1656 0.1891 2.1737 0.4726 0.0315-0.9766-0.18901-1.7327-0.18902-0.7875-0.72456-1.2915-0.53554-0.5356-1.4491-0.7876-0.88206-0.2835-2.2367-0.315-1.1026-0.031-2.1422 0.252-1.0081 0.252-1.8586 0.5985-0.34653 0.126-0.69305 0.095-0.31503-0.063-0.59855-0.2205-0.28352-0.189-0.47254-0.441-0.15751-0.2835-0.15751-0.6301 0-0.504 0.28352-0.8505 0.28353-0.3465 0.59855-0.4411l-0.0315 0.032q1.2286-0.5355 2.4887-0.819 1.2916-0.315 2.8352-0.315 1.7641 0 3.0557 0.504 1.3231 0.4725 2.2997 1.3546 1.1026 1.0081 1.5121 2.5202 0.40953 1.4806 0.40953 2.9297zm-8.0961 7.1826q1.0396 0 1.9532-0.2836 0.91357-0.315 1.6066-0.8505 0.72456-0.5356 1.1341-1.2601 0.40953-0.7561 0.40953-1.6066l0.0315-1.2916q-0.85056-0.2521-2.0792-0.4411-1.1971-0.189-2.4257-0.189-2.1107 0-3.2448 0.8191-1.1026 0.7875-1.1026 2.1736 0 1.4176 1.0711 2.1737 1.1026 0.7561 2.6462 0.7561z"/>
   <path id="path23415" fill="#cad3b8" d="m202.28 1049.1q0.0945-0.9135 0.15752-2.5517 0.0945-1.6696 0.15751-3.7172 0.0945-2.0477 0.12601-4.3474 0.0315-2.3311 0.0315-4.5678 0-1.6381-0.0315-3.1188 0-1.5121-0.063-2.7722-0.0315-1.2916-0.12601-2.2681-0.063-0.9766-0.18901-1.5437h-5.3869q-0.47254 0-0.85057-0.3465-0.37802-0.378-0.37802-0.9136 0-0.441 0.37802-0.7875 0.40954-0.378 0.85057-0.4095 0.97657 0 1.9216 0 0.94508-0.032 1.7011-0.032 0.78756 0 1.3861 0 0.59855 0 0.88207 0 0.66155 0 0.81906 0 0.18901-0.032 0.28352 0.032 0.66155 0.126 0.94507 0.6615 0.31503 0.504 0.44104 1.1026 0.12601 1.0081 0.22051 2.3627t0.15752 2.9612q0.0945 1.6066 0.126 3.4023 0.0315 1.7641 0.0315 3.6227 0 1.9217-0.063 3.8748-0.0315 1.9217-0.0945 3.7173t-0.18902 3.4338q-0.0945 1.6066-0.22052 2.9297-0.12601 0.63-0.50403 1.1971-0.37803 0.567-1.2601 0.5355h-6.584q-0.47254 0-0.85057-0.378-0.37802-0.3465-0.37802-0.8506 0-0.504 0.37802-0.882 0.37803-0.3466 0.85057-0.3466h5.3239z"/>
   <path id="path23417" fill="#cad3b8" d="m213.14 1031.9q-0.53554 0.3466-1.0396 0.7246-0.50404 0.378-1.0081 0.7245-0.18902 0.1261-0.40953 0.2206-0.22052 0.095-0.40953 0.095-0.44104 0-0.75606-0.3151-0.31503-0.3465-0.31503-0.7875 0-0.378 0.22052-0.6301 0.25202-0.2835 0.56704-0.3465h-0.0315q0.37803-0.189 0.63005-0.315 0.28352-0.126 0.53554-0.252 0.28352-0.126 0.56704-0.2521 0.28353-0.126 0.66155-0.2835-0.63004-0.2835-1.2286-0.567-0.59854-0.2835-1.1656-0.5356-0.31502-0.1575-0.53554-0.4095-0.22052-0.2835-0.22052-0.63 0-0.4411 0.31503-0.7246 0.34652-0.315 0.75606-0.378 0.25202 0 0.44103 0.094t0.37803 0.2205q0.59854 0.4095 1.0081 0.7246 0.40953 0.2835 1.0396 0.7245-0.063-0.567-0.12601-1.2286-0.063-0.693-0.0945-1.2286-0.063-0.504 0.25202-0.8505 0.31502-0.3781 0.78756-0.3781 0.47253 0 0.78756 0.3781 0.31502 0.3465 0.25202 0.819-0.063 0.7876-0.12601 1.2601-0.0315 0.4411-0.0945 1.2286 0.53554-0.3465 1.0396-0.7245 0.50404-0.3781 1.0081-0.7246 0.18902-0.126 0.40954-0.2205 0.22051-0.094 0.40953-0.094 0.44103 0 0.75605 0.3465 0.31503 0.315 0.31503 0.7561 0 0.441-0.25202 0.6615-0.22052 0.2205-0.50404 0.378-0.72455 0.3466-1.1971 0.5671-0.44103 0.189-1.1656 0.5355 0.56704 0.252 1.1656 0.5356 0.63005 0.2835 1.1971 0.567h-0.0315q0.31502 0.063 0.53554 0.315 0.25202 0.2521 0.25202 0.6616 0 0.441-0.34653 0.7875-0.31502 0.3151-0.72455 0.3151-0.25202 0-0.44104-0.095-0.18901-0.094-0.37803-0.2206-0.59854-0.4095-1.0081-0.693-0.40953-0.315-1.0396-0.7561 0.063 0.5986 0.12601 1.2601 0.063 0.6616 0.0945 1.2286 0.063 0.4726-0.25202 0.8506-0.31503 0.3465-0.78756 0.3465-0.47254 0-0.78756-0.3465-0.31503-0.378-0.25202-0.8506l0.22051-2.4887z"/>
   <path id="path23419" fill="#cad3b8" d="m219.03 1050.4q0-0.4095 0.22051-0.693l-0.0315 0.063q3.3393-6.6785 6.647-13.294 3.3392-6.6155 6.6785-13.294 0.18901-0.3151 0.50403-0.5356 0.31503-0.252 0.69306-0.252 0.50404 0 0.88206 0.378 0.37803 0.3466 0.37803 0.8821 0 0.378-0.15751 0.6301l-13.357 26.588q-0.40953 0.7875-1.1656 0.7875-0.53555 0-0.91357-0.378-0.37803-0.3465-0.37803-0.8821z"/>
  </g>
  <text id="text2985-2-5-9-8-3-5" style="word-spacing:0px;letter-spacing:0px" xml:space="preserve" font-size="31.502px" y="1121.3511" x="10.275842" font-family="Sans" line-height="125%"><tspan id="tspan2987-4-9-7-1-6-0" style="letter-spacing:-1.4412px" y="1121.3511" x="10.275842" font-family="&apos;Chams &apos;" fill="#e0e0e0"><tspan id="tspan3777-6-1-7-1-3-0" style="letter-spacing:-1.4412px" dx="0 0" font-family="&apos;Chams &apos;"><tspan id="tspan4868-5-1-5" fill="#cad3b8">/</tspan><tspan id="tspan16175-1-6-4" fill="#46362c">consol</tspan><tspan id="tspan4870-7-6-5" fill="#cad3b8">[</tspan><tspan id="tspan16177-0-8-8" fill="#46362c">i</tspan><tspan id="tspan4872-3-0-0" fill="#cad3b8">|.]+[</tspan><tspan id="tspan16179-8-2-0" fill="#46362c">a</tspan><tspan id="tspan4874-6-8-7" fill="#cad3b8">]*/</tspan></tspan></tspan></text>
 </g>
</svg>
