<?xml version="1.0" encoding="UTF-8" standalone="no"?>
<!-- Created with Inkscape (http://www.inkscape.org/) -->

<svg
   xmlns:dc="http://purl.org/dc/elements/1.1/"
   xmlns:cc="http://creativecommons.org/ns#"
   xmlns:rdf="http://www.w3.org/1999/02/22-rdf-syntax-ns#"
   xmlns:svg="http://www.w3.org/2000/svg"
   xmlns="http://www.w3.org/2000/svg"
   xmlns:sodipodi="http://sodipodi.sourceforge.net/DTD/sodipodi-0.dtd"
   xmlns:inkscape="http://www.inkscape.org/namespaces/inkscape"
   width="218.76808"
   height="22.578842"
   viewBox="0 0 57.882387 5.9739855"
   version="1.1"
   id="svg8"
   inkscape:version="0.92.4 5da689c313, 2019-01-14"
   sodipodi:docname="header-patreon.svg">
  <defs
     id="defs2" />
  <sodipodi:namedview
     id="base"
     pagecolor="#ffffff"
     bordercolor="#666666"
     borderopacity="1.0"
     inkscape:pageopacity="0.0"
     inkscape:pageshadow="2"
     inkscape:zoom="1"
     inkscape:cx="151.59153"
     inkscape:cy="-11.31117"
     inkscape:document-units="px"
     inkscape:current-layer="text59489"
     showgrid="false"
     units="px"
     borderlayer="true"
     inkscape:showpageshadow="false"
     inkscape:window-width="1680"
     inkscape:window-height="1026"
     inkscape:window-x="0"
     inkscape:window-y="24"
     inkscape:window-maximized="1"
     inkscape:snap-global="false"
     fit-margin-top="0"
     fit-margin-left="0"
     fit-margin-right="0"
     fit-margin-bottom="0" />
  <metadata
     id="metadata5">
    <rdf:RDF>
      <cc:Work
         rdf:about="">
        <dc:format>image/svg+xml</dc:format>
        <dc:type
           rdf:resource="http://purl.org/dc/dcmitype/StillImage" />
        <dc:title></dc:title>
      </cc:Work>
    </rdf:RDF>
  </metadata>
  <g
     inkscape:label="Layer 1"
     inkscape:groupmode="layer"
     id="layer1"
     transform="translate(-31.383805,248.38284)">
    <g
       aria-label="patreon"
       style="font-style:normal;font-variant:normal;font-weight:normal;font-stretch:normal;font-size:6.1698041px;line-height:1.29999995;font-family:'WebLetterer BB';-inkscape-font-specification:'WebLetterer BB';font-variant-ligatures:normal;font-variant-position:normal;font-variant-caps:normal;font-variant-numeric:normal;font-variant-alternates:normal;font-feature-settings:normal;text-indent:0;text-align:start;text-decoration:none;text-decoration-line:none;text-decoration-style:solid;text-decoration-color:#000000;letter-spacing:0px;word-spacing:0px;text-transform:none;writing-mode:lr-tb;direction:ltr;text-orientation:mixed;dominant-baseline:auto;baseline-shift:baseline;text-anchor:start;white-space:normal;shape-padding:0;opacity:1;vector-effect:none;fill:#22da15;fill-opacity:1;stroke:none;stroke-width:0.26458332;stroke-linecap:butt;stroke-linejoin:miter;stroke-miterlimit:4;stroke-dasharray:none;stroke-dashoffset:0;stroke-opacity:1"
       id="text59489">
      <path
         d="m 67.060776,-242.92702 q -0.762188,0.13557 -1.256255,0.3826 0.06628,-0.43381 0.09339,-0.59649 0.105441,-0.0392 0.216907,-0.0844 0.241008,-1.37073 0.421764,-2.60288 -0.102428,0.0633 -0.210882,0.12954 0.105441,-0.75315 0.156655,-1.32554 2.720378,-1.59066 3.018625,-0.0783 0.06929,1.54245 -2.268487,2.80172 -0.0964,0.77725 -0.171718,1.37374 z m 0.424776,-3.40725 q -0.08737,0.67784 -0.159668,1.27132 1.096587,-0.57541 1.096587,-1.23818 0,-0.46394 -0.936919,-0.0331 z"
         style="font-style:normal;font-variant:normal;font-weight:normal;font-stretch:normal;font-family:'Shaka Pow';-inkscape-font-specification:'Shaka Pow';fill:#22da15;fill-opacity:1;stroke-width:0.26458332"
         id="path220901" />
      <path
         d="m 69.52207,-243.63197 q -0.147618,0.39767 -0.313311,0.81943 -0.37055,-0.3103 -0.816414,-0.51214 0.918843,-1.98229 1.623791,-4.67857 0.554318,-0.0753 1.171901,-0.25607 -0.05121,2.79569 0.268122,4.93163 -0.629634,0.27414 -1.033322,0.5513 -0.03013,-0.51817 -0.05121,-1.03633 z m 0.825452,-0.90679 q -0.02109,-0.8134 -0.01205,-1.6268 -0.201844,0.78629 -0.530217,1.74128 z"
         style="font-style:normal;font-variant:normal;font-weight:normal;font-stretch:normal;font-family:'Shaka Pow';-inkscape-font-specification:'Shaka Pow';fill:#22da15;fill-opacity:1;stroke-width:0.26458332"
         id="path220903" />
      <path
         d="m 73.16129,-246.09929 q -0.271134,1.91602 -0.466953,2.93428 -0.611558,0.34042 -1.003196,0.53021 0.331386,-1.72019 0.557331,-3.2054 -0.445864,0.14761 -0.888717,0.33138 0.05724,-0.49105 0.162681,-1.15382 1.238178,-0.45189 2.819793,-0.76822 -0.13858,0.59047 -0.210882,1.14479 -0.485028,0.0723 -0.970057,0.18678 z"
         style="font-style:normal;font-variant:normal;font-weight:normal;font-stretch:normal;font-family:'Shaka Pow';-inkscape-font-specification:'Shaka Pow';fill:#22da15;fill-opacity:1;stroke-width:0.26458332"
         id="path220905" />
      <path
         d="m 75.161656,-244.98462 q 1.081524,-0.51215 1.129725,-1.36471 -0.003,-0.44285 -0.939931,-0.0361 -0.09942,0.75616 -0.189794,1.40086 z m -0.105441,0.73507 q -0.108453,0.74712 -0.204856,1.31651 -0.59047,0.12653 -0.979095,0.30126 0.31331,-1.7443 0.536242,-3.26867 -0.09942,0.0602 -0.207869,0.12351 0.09942,-0.717 0.144605,-1.25926 2.71134,-1.51534 3.018625,-0.0753 0.129541,1.29241 -1.455086,2.36489 0.186781,0.54528 0.475991,0.99416 0.06025,-0.0904 0.159668,-0.25607 0.201844,0.32235 0.295234,0.57842 -0.460927,0.44586 -1.018258,0.91281 -0.412726,-0.92788 -0.680848,-1.77442 -0.04218,0.0211 -0.08435,0.0422 z"
         style="font-style:normal;font-variant:normal;font-weight:normal;font-stretch:normal;font-family:'Shaka Pow';-inkscape-font-specification:'Shaka Pow';fill:#22da15;fill-opacity:1;stroke-width:0.26458332"
         id="path220907" />
      <path
         d="m 77.029468,-242.56551 q 0.325361,-1.73827 0.548293,-3.19938 -0.13858,0.0542 -0.277159,0.11147 0.05724,-0.49106 0.16268,-1.15383 1.238179,-0.45189 2.819794,-0.76821 -0.13858,0.59047 -0.210882,1.14479 -0.792314,0.11448 -1.57559,0.34946 l -0.09038,0.65072 q 0.551306,-0.18678 1.036334,-0.30728 -0.117491,0.50611 -0.192806,0.83449 -0.391638,0.0602 -0.954994,0.22594 -0.0723,0.45792 -0.135567,0.84052 0.756162,-0.23197 1.593665,-0.4067 -0.135567,0.59046 -0.201844,1.04537 -1.183952,0.17473 -2.521546,0.63264 z"
         style="font-style:normal;font-variant:normal;font-weight:normal;font-stretch:normal;font-family:'Shaka Pow';-inkscape-font-specification:'Shaka Pow';fill:#22da15;fill-opacity:1;stroke-width:0.26458332"
         id="path220909" />
      <path
         d="m 82.193063,-247.76224 q 0.569382,0.0783 0.789302,0.82846 0.222932,0.75014 -0.03916,1.73225 -0.256071,0.97909 -0.900768,1.60873 -0.641683,0.62963 -1.214077,0.54829 -0.572394,-0.0813 -0.738087,-0.82545 -0.165693,-0.74411 0.0964,-1.72321 0.256071,-0.97909 0.843528,-1.61475 0.59047,-0.63566 1.162863,-0.55432 z m -0.204856,1.40688 q -0.06025,-0.0362 -0.153643,-0.0241 -0.578419,0.17473 -0.825452,1.09358 -0.237996,1.21709 0.216907,1.25324 0.415739,-0.0301 0.732062,-0.45792 0.247033,-0.36754 0.31331,-0.98512 0.03314,-0.65976 -0.283184,-0.87968 z"
         style="font-style:normal;font-variant:normal;font-weight:normal;font-stretch:normal;font-family:'Shaka Pow';-inkscape-font-specification:'Shaka Pow';fill:#22da15;fill-opacity:1;stroke-width:0.26458332"
         id="path220911" />
      <path
         d="m 83.163121,-246.9157 q 0.06025,-0.56938 0.153643,-1.05441 0.997171,-0.26812 1.433997,-0.41273 0.234983,0.92487 0.403689,2.151 0.111466,-0.96705 0.268121,-1.82564 0.506117,-0.0422 1.162864,-0.24703 -0.412726,2.87402 -0.662772,4.79305 -0.391638,0.10243 -0.936919,0.26511 -0.593482,-2.04556 -0.701935,-2.91319 -0.153643,1.15383 -0.382601,2.55469 -0.584444,0.18075 -1.00922,0.30126 0.271133,-2.04857 0.524192,-3.70249 -0.105441,0.0271 -0.253059,0.0904 z"
         style="font-style:normal;font-variant:normal;font-weight:normal;font-stretch:normal;font-family:'Shaka Pow';-inkscape-font-specification:'Shaka Pow';fill:#22da15;fill-opacity:1;stroke-width:0.26458332"
         id="path220913" />
    </g>
    <g
       aria-label="check out my"
       style="font-style:normal;font-variant:normal;font-weight:normal;font-stretch:normal;font-size:6.1698041px;line-height:1.29999995;font-family:'WebLetterer BB';-inkscape-font-specification:'WebLetterer BB';font-variant-ligatures:normal;font-variant-position:normal;font-variant-caps:normal;font-variant-numeric:normal;font-variant-alternates:normal;font-feature-settings:normal;text-indent:0;text-align:start;text-decoration:none;text-decoration-line:none;text-decoration-style:solid;text-decoration-color:#000000;letter-spacing:0px;word-spacing:0px;text-transform:none;writing-mode:lr-tb;direction:ltr;text-orientation:mixed;dominant-baseline:auto;baseline-shift:baseline;text-anchor:start;white-space:normal;shape-padding:0;opacity:1;vector-effect:none;fill:#ffffff;fill-opacity:1;stroke:none;stroke-width:0.26458332;stroke-linecap:butt;stroke-linejoin:miter;stroke-miterlimit:4;stroke-dasharray:none;stroke-dashoffset:0;stroke-opacity:1"
       id="text59493">
      <path
         d="m 34.251171,-247.8014 q 0.31331,-0.0603 0.527205,-0.13557 -0.343437,1.35266 -0.515155,1.95518 l -0.861603,0.46695 q 0.156655,-0.88872 -0.135567,-1.1237 -0.05724,-0.0392 -0.144605,-0.0271 -0.545281,0.18678 -0.795327,1.17491 -0.247033,1.30747 0.180756,1.34663 0.482016,-0.0331 0.677835,-0.72604 l 0.825453,-0.39465 q -0.159668,0.95199 -0.744112,1.59066 -0.617583,0.67783 -1.153826,0.59047 -0.539255,-0.0874 -0.680848,-0.88571 -0.138579,-0.80135 0.12653,-1.85275 0.259083,-1.05139 0.822439,-1.73224 0.566369,-0.68386 1.105624,-0.5965 0.53323,0.0844 0.695911,0.71399 0.03013,-0.18377 0.06929,-0.36452 z"
         style="font-style:normal;font-variant:normal;font-weight:normal;font-stretch:normal;font-family:'Shaka Pow';-inkscape-font-specification:'Shaka Pow';fill:#ffffff;stroke-width:0.26458332"
         id="path220880" />
      <path
         d="m 35.670105,-245.29793 q 0.159668,-0.97307 0.283184,-1.86179 0.445865,-0.25607 1.174914,-0.46997 -0.0482,0.18076 -0.102428,0.62361 l -0.177743,0.10845 q -0.328374,2.39502 -0.599508,3.88325 -0.632646,0.15364 -1.048384,0.34042 0.180755,-0.93391 0.331385,-1.80455 l -0.283184,0.0783 q -0.114479,0.72905 -0.213894,1.28939 -0.744113,0.19582 -1.34362,0.46394 0.09942,-0.50611 0.147617,-0.84352 0.15063,-0.0512 0.298248,-0.10243 0.355487,-1.913 0.596495,-3.66332 0.45189,-0.25909 0.979094,-0.38863 -0.180756,1.35868 -0.337411,2.42816 z"
         style="font-style:normal;font-variant:normal;font-weight:normal;font-stretch:normal;font-family:'Shaka Pow';-inkscape-font-specification:'Shaka Pow';fill:#ffffff;stroke-width:0.26458332"
         id="path220882" />
      <path
         d="m 36.655225,-242.56551 q 0.325361,-1.73827 0.548293,-3.19938 -0.138579,0.0542 -0.277159,0.11147 0.05724,-0.49106 0.162681,-1.15383 1.238178,-0.45189 2.819793,-0.76821 -0.13858,0.59047 -0.210882,1.14479 -0.792314,0.11448 -1.57559,0.34946 l -0.09038,0.65072 q 0.551306,-0.18678 1.036334,-0.30728 -0.117491,0.50611 -0.192806,0.83449 -0.391638,0.0602 -0.954994,0.22594 -0.0723,0.45792 -0.135567,0.84052 0.756163,-0.23197 1.593665,-0.4067 -0.135567,0.59046 -0.201844,1.04537 -1.183952,0.17473 -2.521546,0.63264 z"
         style="font-style:normal;font-variant:normal;font-weight:normal;font-stretch:normal;font-family:'Shaka Pow';-inkscape-font-specification:'Shaka Pow';fill:#ffffff;stroke-width:0.26458332"
         id="path220884" />
      <path
         d="m 42.529794,-247.8014 q 0.313311,-0.0603 0.527205,-0.13557 -0.343436,1.35266 -0.515154,1.95518 l -0.861604,0.46695 q 0.156655,-0.88872 -0.135567,-1.1237 -0.05724,-0.0392 -0.144605,-0.0271 -0.54528,0.18678 -0.795326,1.17491 -0.247033,1.30747 0.180756,1.34663 0.482016,-0.0331 0.677835,-0.72604 l 0.825452,-0.39465 q -0.159668,0.95199 -0.744112,1.59066 -0.617583,0.67783 -1.153826,0.59047 -0.539255,-0.0874 -0.680847,-0.88571 -0.13858,-0.80135 0.126529,-1.85275 0.259084,-1.05139 0.82244,-1.73224 0.566369,-0.68386 1.105624,-0.5965 0.53323,0.0844 0.69591,0.71399 0.03013,-0.18377 0.06929,-0.36452 z"
         style="font-style:normal;font-variant:normal;font-weight:normal;font-stretch:normal;font-family:'Shaka Pow';-inkscape-font-specification:'Shaka Pow';fill:#ffffff;stroke-width:0.26458332"
         id="path220886" />
      <path
         d="m 43.840275,-243.96938 q -0.08134,0.46997 -0.168705,0.97006 -0.539256,0.29825 -0.991146,0.3826 0.331386,-1.94313 0.554319,-3.75069 -0.192807,0.0844 -0.340424,0.14461 0.05121,-0.41273 0.126529,-1.02429 0.43984,-0.16569 1.491237,-0.61758 -0.180756,1.06646 -0.430802,2.51251 0.457915,-0.74411 0.976082,-1.90999 0.45189,-0.0542 1.117675,-0.16569 -0.879679,1.38881 -1.717182,2.59083 0.105441,0.63265 0.307285,1.14479 0.04519,-0.0904 0.117492,-0.25607 0.126529,0.32235 0.17473,0.57842 -0.331386,0.44586 -0.732061,0.91282 -0.225945,-0.87366 -0.364525,-1.67802 -0.06025,0.0844 -0.120504,0.16569 z"
         style="font-style:normal;font-variant:normal;font-weight:normal;font-stretch:normal;font-family:'Shaka Pow';-inkscape-font-specification:'Shaka Pow';fill:#ffffff;stroke-width:0.26458332"
         id="path220888" />
      <path
         d="m 49.63953,-247.76224 q 0.569381,0.0783 0.789301,0.82846 0.222932,0.75014 -0.03916,1.73225 -0.256071,0.97909 -0.900767,1.60873 -0.641684,0.62963 -1.214078,0.54829 -0.572394,-0.0813 -0.738087,-0.82545 -0.165693,-0.74411 0.0964,-1.72321 0.256071,-0.97909 0.843527,-1.61475 0.59047,-0.63566 1.162864,-0.55432 z m -0.204857,1.40688 q -0.06025,-0.0362 -0.153642,-0.0241 -0.57842,0.17473 -0.825453,1.09358 -0.237995,1.21709 0.216907,1.25324 0.415739,-0.0301 0.732062,-0.45792 0.247033,-0.36754 0.313311,-0.98512 0.03314,-0.65976 -0.283185,-0.87968 z"
         style="font-style:normal;font-variant:normal;font-weight:normal;font-stretch:normal;font-family:'Shaka Pow';-inkscape-font-specification:'Shaka Pow';fill:#ffffff;stroke-width:0.26458332"
         id="path220890" />
      <path
         d="m 53.555908,-247.56642 q -0.225945,1.89191 -0.469965,2.81979 -0.247033,0.9791 -0.858591,1.60873 -0.611558,0.62963 -1.150813,0.54829 -0.536243,-0.0813 -0.686873,-0.82545 -0.144605,-0.72302 0.479003,-3.62717 l 1.018259,-0.39766 q -0.798339,3.50968 -0.367537,3.54583 0.195819,0.0151 0.497079,-0.41273 0.201844,-0.28318 0.475991,-2.81678 z"
         style="font-style:normal;font-variant:normal;font-weight:normal;font-stretch:normal;font-family:'Shaka Pow';-inkscape-font-specification:'Shaka Pow';fill:#ffffff;stroke-width:0.26458332"
         id="path220892" />
      <path
         d="m 55.1797,-246.09929 q -0.271134,1.91602 -0.466953,2.93428 -0.611557,0.34042 -1.003195,0.53021 0.331386,-1.72019 0.55733,-3.2054 -0.445864,0.14761 -0.888716,0.33138 0.05724,-0.49105 0.16268,-1.15382 1.238178,-0.45189 2.819793,-0.76822 -0.138579,0.59047 -0.210882,1.14479 -0.485028,0.0723 -0.970057,0.18678 z"
         style="font-style:normal;font-variant:normal;font-weight:normal;font-stretch:normal;font-family:'Shaka Pow';-inkscape-font-specification:'Shaka Pow';fill:#ffffff;stroke-width:0.26458332"
         id="path220894" />
      <path
         d="m 57.848864,-246.33728 q 0.06326,-0.46997 0.07833,-0.92788 1.20504,-0.33139 1.647892,-0.48202 0.06025,1.03332 0.12653,1.73827 0.207869,-0.53925 0.460927,-1.22613 0.515155,-0.0422 1.183952,-0.25607 -0.397663,2.81076 -0.659759,4.80811 -0.397663,0.10544 -0.951982,0.27415 0.117492,-1.30144 0.316323,-2.50347 -0.195819,0.42477 -0.707961,1.48521 -0.141592,-1.10864 -0.207869,-2.22932 -0.198832,1.41893 -0.43984,2.87402 -0.596494,0.18979 -1.180939,0.36753 0.280172,-2.12689 0.59047,-4.01579 -0.102429,0.0301 -0.256071,0.0934 z"
         style="font-style:normal;font-variant:normal;font-weight:normal;font-stretch:normal;font-family:'Shaka Pow';-inkscape-font-specification:'Shaka Pow';fill:#ffffff;stroke-width:0.26458332"
         id="path220896" />
      <path
         d="m 62.879906,-246.15351 q 0.343436,-0.58143 0.671809,-1.1478 0.554319,-0.13557 1.05441,-0.18377 -1.702119,2.97343 -2.575773,4.36827 -0.735074,0.29222 -1.292405,0.46996 0.831478,-1.33157 1.590653,-2.58481 -0.198832,-0.61457 -0.698923,-1.80756 0.31331,-0.23498 0.888717,-0.42176 0.192806,0.75917 0.361512,1.30747 z"
         style="font-style:normal;font-variant:normal;font-weight:normal;font-stretch:normal;font-family:'Shaka Pow';-inkscape-font-specification:'Shaka Pow';fill:#ffffff;stroke-width:0.26458332"
         id="path220898" />
    </g>
    <g
       aria-label="!"
       style="font-style:normal;font-variant:normal;font-weight:normal;font-stretch:normal;font-size:6.1698041px;line-height:1.29999995;font-family:'WebLetterer BB';-inkscape-font-specification:'WebLetterer BB';font-variant-ligatures:normal;font-variant-position:normal;font-variant-caps:normal;font-variant-numeric:normal;font-variant-alternates:normal;font-feature-settings:normal;text-indent:0;text-align:start;text-decoration:none;text-decoration-line:none;text-decoration-style:solid;text-decoration-color:#000000;letter-spacing:0px;word-spacing:0px;text-transform:none;writing-mode:lr-tb;direction:ltr;text-orientation:mixed;dominant-baseline:auto;baseline-shift:baseline;text-anchor:start;white-space:normal;shape-padding:0;opacity:1;vector-effect:none;fill:#ffffff;fill-opacity:1;stroke:none;stroke-width:0.26458332;stroke-linecap:butt;stroke-linejoin:miter;stroke-miterlimit:4;stroke-dasharray:none;stroke-dashoffset:0;stroke-opacity:1"
       id="text199381">
      <path
         d="m 87.497797,-243.34276 q 0.003,-0.19883 0.174731,-0.37055 0.171718,-0.17172 0.412726,-0.21389 0.241008,-0.0422 0.409714,0.0512 0.171718,0.0934 0.171718,0.29524 -0.003,0.19883 -0.174731,0.38862 -0.168705,0.1898 -0.409713,0.23197 -0.244021,0.0422 -0.415739,-0.0693 -0.168706,-0.11146 -0.168706,-0.31331 z m 1.768396,-4.49781 q -0.388625,1.86781 -0.60252,3.40725 -0.439839,0.18377 -0.964032,0.26812 0.292223,-2.23836 0.527205,-3.44641 0.626621,-0.0964 1.039347,-0.22896 z"
         style="font-style:normal;font-variant:normal;font-weight:normal;font-stretch:normal;font-family:'Shaka Pow';-inkscape-font-specification:'Shaka Pow';fill:#ffffff;stroke-width:0.26458332"
         id="path220877" />
    </g>
  </g>
</svg>
