<?xml version="1.0" encoding="UTF-8" standalone="no"?>
<!-- Created with Inkscape (http://www.inkscape.org/) -->

<svg
   xmlns:dc="http://purl.org/dc/elements/1.1/"
   xmlns:cc="http://creativecommons.org/ns#"
   xmlns:rdf="http://www.w3.org/1999/02/22-rdf-syntax-ns#"
   xmlns:svg="http://www.w3.org/2000/svg"
   xmlns="http://www.w3.org/2000/svg"
   xmlns:sodipodi="http://sodipodi.sourceforge.net/DTD/sodipodi-0.dtd"
   xmlns:inkscape="http://www.inkscape.org/namespaces/inkscape"
   width="155.84224"
   height="35.783947"
   viewBox="0 0 41.233258 9.4678362"
   version="1.1"
   id="svg8"
   inkscape:version="0.92.4 5da689c313, 2019-01-14"
   sodipodi:docname="logo.svg">
  <defs
     id="defs2" />
  <sodipodi:namedview
     id="base"
     pagecolor="#ffffff"
     bordercolor="#666666"
     borderopacity="1.0"
     inkscape:pageopacity="0.0"
     inkscape:pageshadow="2"
     inkscape:zoom="1"
     inkscape:cx="106.07063"
     inkscape:cy="47.333984"
     inkscape:document-units="px"
     inkscape:current-layer="text59499"
     showgrid="false"
     units="px"
     borderlayer="true"
     inkscape:showpageshadow="false"
     inkscape:window-width="1680"
     inkscape:window-height="1026"
     inkscape:window-x="0"
     inkscape:window-y="24"
     inkscape:window-maximized="1"
     inkscape:snap-global="false"
     fit-margin-top="0"
     fit-margin-left="0"
     fit-margin-right="0"
     fit-margin-bottom="0" />
  <metadata
     id="metadata5">
    <rdf:RDF>
      <cc:Work
         rdf:about="">
        <dc:format>image/svg+xml</dc:format>
        <dc:type
           rdf:resource="http://purl.org/dc/dcmitype/StillImage" />
        <dc:title />
      </cc:Work>
    </rdf:RDF>
  </metadata>
  <g
     inkscape:label="Layer 1"
     inkscape:groupmode="layer"
     id="layer1"
     transform="translate(-11.92712,284.79018)">
    <g
       aria-label="Tim Quax"
       style="font-style:normal;font-variant:normal;font-weight:normal;font-stretch:normal;font-size:6.90903807px;line-height:1.29999995;font-family:'WebLetterer BB';-inkscape-font-specification:'WebLetterer BB';font-variant-ligatures:normal;font-variant-position:normal;font-variant-caps:normal;font-variant-numeric:normal;font-variant-alternates:normal;font-feature-settings:normal;text-indent:0;text-align:start;text-decoration:none;text-decoration-line:none;text-decoration-style:solid;text-decoration-color:#000000;letter-spacing:0px;word-spacing:0px;text-transform:none;writing-mode:lr-tb;direction:ltr;text-orientation:mixed;dominant-baseline:auto;baseline-shift:baseline;text-anchor:start;white-space:normal;shape-padding:0;opacity:1;vector-effect:none;fill:#ffffff;fill-opacity:1;stroke:none;stroke-width:0.26458332;stroke-linecap:butt;stroke-linejoin:miter;stroke-miterlimit:4;stroke-dasharray:none;stroke-dashoffset:0;stroke-opacity:1"
       id="text59499">
      <path
         d="m 20.106301,-284.73793 q 0.161931,1.71039 -0.06072,3.12391 -1.369663,-0.0574 -2.624625,0.0371 l 0.07422,5.89697 q -1.656415,0.0776 -3.157646,0.0472 l 0.168677,-5.96444 q -1.295444,-0.007 -2.523418,0.0573 -0.111327,-1.57208 0,-3.22174 3.980793,0.0776 8.123517,0.0236 z"
         style="font-style:normal;font-variant:normal;font-weight:normal;font-stretch:normal;font-family:'Space Comics';-inkscape-font-specification:'Space Comics';fill:#ffffff;stroke-width:0.26458332"
         id="path221553" />
      <path
         d="m 21.300539,-280.12628 h 0.620734 v 3.77838 h -0.620734 z m 0,-1.47087 h 0.620734 v 0.78604 h -0.620734 z"
         style="font-style:normal;font-variant:normal;font-weight:normal;font-stretch:normal;font-family:'Space Comics';-inkscape-font-specification:'Space Comics';fill:#ffffff;stroke-width:0.26458332"
         id="path221555" />
      <path
         d="m 26.16183,-279.40097 q 0.232775,-0.41832 0.556637,-0.61736 0.323861,-0.19904 0.762423,-0.19904 0.590372,0 0.910859,0.41495 0.320488,0.41157 0.320488,1.174 v 2.28052 h -0.624108 v -2.26028 q 0,-0.54314 -0.192292,-0.80628 -0.192293,-0.26314 -0.586999,-0.26314 -0.482418,0 -0.762423,0.32049 -0.280005,0.32049 -0.280005,0.87375 v 2.13546 h -0.624107 v -2.26028 q 0,-0.54652 -0.192293,-0.80628 -0.192292,-0.26314 -0.593745,-0.26314 -0.475671,0 -0.755676,0.32386 -0.280005,0.32049 -0.280005,0.87038 v 2.13546 h -0.624108 v -3.77838 h 0.624108 v 0.587 q 0.212534,-0.34748 0.509407,-0.51278 0.296872,-0.16531 0.705072,-0.16531 0.411574,0 0.698326,0.20916 0.290126,0.20916 0.428441,0.60724 z"
         style="font-style:normal;font-variant:normal;font-weight:normal;font-stretch:normal;font-family:'Space Comics';-inkscape-font-specification:'Space Comics';fill:#ffffff;stroke-width:0.26458332"
         id="path221557" />
      <path
         d="m 37.94228,-276.09488 q -1.025561,0.46555 -2.472815,0.42844 -1.845334,-0.007 -3.039572,-1.54172 -0.566757,-0.91086 -0.671337,-1.9769 -0.10458,-1.14701 0.273258,-2.34799 0.482418,-1.30557 1.302191,-2.02076 2.570648,-2.29064 5.461784,-0.33736 0.96821,0.7658 1.37641,2.08486 0.212534,0.79953 0.192292,1.59232 -0.138315,1.48099 -0.681458,2.47956 l 0.819774,0.82989 q -0.745555,0.97496 -1.504605,1.5822 z m -3.167767,-3.44778 q 0.246269,0.74219 1.096405,0.75905 0.748929,0.0439 1.200985,-0.45543 0.495912,-0.6376 0.229402,-1.27857 -0.367718,-0.8164 -1.096405,-0.79954 -0.917607,0.0742 -1.335928,0.94123 -0.192292,0.44531 -0.09446,0.83326 z"
         style="font-style:normal;font-variant:normal;font-weight:normal;font-stretch:normal;font-family:'Space Comics';-inkscape-font-specification:'Space Comics';fill:#ffffff;stroke-width:0.26458332"
         id="path221559" />
      <path
         d="m 41.271977,-277.83901 v -2.28727 h 0.620734 v 2.26365 q 0,0.5364 0.20916,0.80628 0.20916,0.26651 0.627481,0.26651 0.50266,0 0.792785,-0.32048 0.293499,-0.32049 0.293499,-0.87375 v -2.14221 h 0.620734 v 3.77838 h -0.620734 v -0.58025 q -0.226028,0.3441 -0.526274,0.51278 -0.296873,0.1653 -0.691579,0.1653 -0.651095,0 -0.988451,-0.40482 -0.337355,-0.40483 -0.337355,-1.18412 z m 1.561955,-2.37836 z"
         style="font-style:normal;font-variant:normal;font-weight:normal;font-stretch:normal;font-family:'Space Comics';-inkscape-font-specification:'Space Comics';fill:#ffffff;stroke-width:0.26458332"
         id="path221561" />
      <path
         d="m 47.432085,-278.24721 q -0.752302,0 -1.042428,0.17205 -0.290126,0.17205 -0.290126,0.587 0,0.33061 0.215908,0.52627 0.219281,0.1923 0.593745,0.1923 0.516154,0 0.826521,-0.36435 0.31374,-0.36772 0.31374,-0.97496 v -0.13831 z m 1.238094,-0.25639 v 2.1557 h -0.620734 v -0.5735 q -0.212533,0.3441 -0.529647,0.5094 -0.317115,0.16193 -0.775918,0.16193 -0.580251,0 -0.924354,-0.32386 -0.340728,-0.32723 -0.340728,-0.87375 0,-0.6376 0.425067,-0.96146 0.428442,-0.32386 1.275204,-0.32386 h 0.870376 v -0.0607 q 0,-0.42844 -0.283378,-0.66121 -0.280005,-0.23615 -0.789412,-0.23615 -0.323861,0 -0.630854,0.0776 -0.306994,0.0776 -0.590372,0.23277 v -0.5735 q 0.340729,-0.13157 0.661216,-0.19567 0.320488,-0.0675 0.624108,-0.0675 0.819773,0 1.2246,0.42507 0.404826,0.42507 0.404826,1.2887 z"
         style="font-style:normal;font-variant:normal;font-weight:normal;font-stretch:normal;font-family:'Space Comics';-inkscape-font-specification:'Space Comics';fill:#ffffff;stroke-width:0.26458332"
         id="path221563" />
      <path
         d="m 53.089535,-280.12628 -1.366289,1.83859 1.437134,1.93979 h -0.732061 l -1.099779,-1.48436 -1.099778,1.48436 H 49.4967 l 1.467496,-1.9769 -1.342674,-1.80148 h 0.732061 l 1.001946,1.34605 1.001945,-1.34605 z"
         style="font-style:normal;font-variant:normal;font-weight:normal;font-stretch:normal;font-family:'Space Comics';-inkscape-font-specification:'Space Comics';fill:#ffffff;stroke-width:0.26458332"
         id="path221565" />
    </g>
  </g>
</svg>
